# xmcd CD database file
# Copyright (C) 1993-1996 Ti Kan
#
# Track frame offsets:
#	150
#	23402
#	39685
#	47872
#	61842
#	82810
#	101537
#	119802
#	141265
#	162282
#	173732
#
# Disc length: 2645 seconds
#
# Revision: 1
# Processed by: cddbd v1.4b41PL1 Copyright (c) Steve Scherf et al.
# Submitted via: xmcd 2.0
#
DISCID=8b0a530b
DTITLE=Michael Bloomfield - Blues, Gospel and Ragtime Guitar Instrument
DTITLE=s
DYEAR=1900
DGENRE=
TTITLE0=When I Need You
TTITLE1=Memphis Radio Blues
TTITLE2=Blake's Rag
TTITLE3=Just A Closer Walk With Thee
TTITLE4=At The Cross
TTITLE5=Hawaiian Guitar Waltz
TTITLE6=Gonna Need Somebody On My Bond
TTITLE7=Blues For Norman
TTITLE8=Wheelchair Rag
TTITLE9=Farther Along
TTITLE10=Mood Indigo
EXTD=
EXTT0=
EXTT1=
EXTT2=
EXTT3=
EXTT4=
EXTT5=
EXTT6=
EXTT7=
EXTT8=
EXTT9=
EXTT10=
PLAYORDER=
